<?xml version="1.0" encoding="UTF-8" standalone="no"?><!DOCTYPE svg PUBLIC "-//W3C//DTD SVG 1.1//EN" "http://www.w3.org/Graphics/SVG/1.1/DTD/svg11.dtd"><svg width="100%" height="100%" viewBox="0 0 373 173" version="1.1" xmlns="http://www.w3.org/2000/svg" xmlns:xlink="http://www.w3.org/1999/xlink" xml:space="preserve" xmlns:serif="http://www.serif.com/" style="fill-rule:evenodd;clip-rule:evenodd;stroke-linejoin:round;stroke-miterlimit:2;"><g><path d="M99.24,88.102c0,3.638 -0.623,6.979 -1.87,10.023c-1.246,3.043 -2.869,5.553 -4.868,7.53c-2.224,2.201 -4.582,3.801 -7.075,4.801c-2.494,0.999 -5.166,1.499 -8.019,1.499c-2.785,0 -5.413,-0.477 -7.884,-1.432c-2.47,-0.954 -4.694,-2.375 -6.671,-4.262c-2.178,-2.044 -3.936,-4.621 -5.272,-7.732c-1.337,-3.111 -2.005,-6.609 -2.005,-10.495c0,-3.459 0.528,-6.609 1.584,-9.45c1.055,-2.842 2.639,-5.397 4.75,-7.665c1.954,-2.111 4.279,-3.745 6.974,-4.902c2.695,-1.157 5.537,-1.735 8.524,-1.735c3.032,0 5.84,0.544 8.423,1.634c2.583,1.089 4.818,2.6 6.704,4.531c2.202,2.246 3.869,4.891 5.004,7.935c1.134,3.043 1.701,6.283 1.701,9.72Zm-5.761,0.539c0,-2.92 -0.489,-5.79 -1.466,-8.609c-0.977,-2.818 -2.465,-5.182 -4.464,-7.092c-1.347,-1.302 -2.858,-2.313 -4.531,-3.032c-1.674,-0.719 -3.544,-1.078 -5.61,-1.078c-2.021,0 -3.903,0.365 -5.643,1.095c-1.741,0.73 -3.319,1.803 -4.734,3.218c-1.797,1.796 -3.195,4.02 -4.194,6.67c-1,2.651 -1.5,5.414 -1.5,8.289c0,3.234 0.511,6.131 1.533,8.692c1.022,2.56 2.465,4.728 4.33,6.502c1.28,1.236 2.796,2.23 4.548,2.982c1.752,0.752 3.627,1.129 5.626,1.129c1.999,0 3.869,-0.365 5.61,-1.095c1.741,-0.73 3.319,-1.78 4.734,-3.15c1.684,-1.618 3.066,-3.678 4.144,-6.183c1.078,-2.504 1.617,-5.284 1.617,-8.338Z" style="fill-rule:nonzero;"/><path d="M132.103,110.669l-5.323,0c0.023,-0.629 0.051,-2.707 0.084,-6.233c0.034,-3.526 0.051,-5.705 0.051,-6.536c0,-1.168 -0.006,-2.892 -0.017,-5.172c-0.011,-2.28 -0.028,-3.947 -0.05,-5.003c-0.068,-2.583 -0.562,-4.436 -1.483,-5.559c-0.921,-1.123 -2.515,-1.685 -4.784,-1.685c-1.37,0 -3.066,0.405 -5.087,1.213c-2.022,0.809 -4.066,1.842 -6.132,3.1c0,0.247 -0.011,1.583 -0.034,4.009c-0.022,2.426 -0.034,4.638 -0.034,6.637c0,2.606 0.028,5.75 0.085,9.434c0.056,3.683 0.084,5.615 0.084,5.795l-5.323,0l0,-29.745c0,0 10.245,-5.642 18.361,-5.227c3.677,0.188 5.183,0.904 6.924,2.712c1.741,1.808 2.611,4.285 2.611,7.429c0,2.83 -0.017,5.273 -0.05,7.328c-0.034,2.055 -0.051,3.723 -0.051,5.003c0,2.044 0.028,4.599 0.084,7.665c0.056,3.066 0.084,4.678 0.084,4.835Z" style="fill-rule:nonzero;"/><path d="M165.921,92.065l-24.359,0c0.023,2.381 0.528,4.565 1.516,6.553c0.989,1.988 2.505,3.633 4.549,4.936c1.302,0.831 2.785,1.454 4.447,1.87c1.662,0.415 3.661,0.623 5.997,0.623c1.28,0 2.454,-0.034 3.521,-0.101c1.067,-0.067 1.724,-0.112 1.971,-0.135l-0.607,4.481c-0.179,0.023 -0.775,0.062 -1.785,0.118c-1.011,0.056 -2.202,0.084 -3.572,0.084c-3.593,0 -6.721,-0.466 -9.383,-1.398c-2.661,-0.932 -4.846,-2.218 -6.553,-3.857c-1.46,-1.371 -2.701,-3.123 -3.723,-5.256c-1.022,-2.134 -1.533,-4.504 -1.533,-7.109c0,-2.561 0.382,-4.874 1.146,-6.941c0.764,-2.066 1.909,-3.986 3.436,-5.761c1.326,-1.527 2.971,-2.706 4.936,-3.537c1.966,-0.832 4.004,-1.247 6.115,-1.247c2.089,0 3.942,0.314 5.559,0.943c1.618,0.629 3.021,1.584 4.212,2.864c1.325,1.438 2.336,3.206 3.032,5.306c0.696,2.101 1.056,4.622 1.078,7.564Zm-5.222,-3.773c-0.359,-2.785 -1.308,-4.97 -2.847,-6.553c-1.539,-1.584 -3.566,-2.375 -6.081,-2.375c-2.516,0 -4.616,0.803 -6.301,2.408c-1.684,1.606 -2.852,3.78 -3.503,6.52l18.732,0Z" style="fill-rule:nonzero;"/><path d="M245.17,66.335c-3.796,9.95 -7.328,19.715 -10.596,29.295c-3.268,9.579 -4.981,14.582 -5.138,15.009l-4.683,0c-0.113,-0.427 -1.32,-4.003 -3.622,-10.73c-2.302,-6.728 -5.34,-15.1 -9.114,-25.117l-0.067,0c-3.302,8.288 -6.34,16.211 -9.114,23.769c-2.774,7.558 -4.25,11.584 -4.43,12.078l-4.784,0c-0.18,-0.651 -1.623,-5.059 -4.33,-13.224c-2.706,-8.164 -6.317,-18.378 -10.831,-30.642l5.525,-2.156c0.09,0.314 1.404,4.267 3.942,11.859c2.538,7.592 5.447,16.116 8.726,25.572l0.067,0c3.459,-8.715 6.475,-16.7 9.046,-23.955c2.572,-7.255 3.914,-11.05 4.027,-11.387l5.222,0c0.09,0.381 1.454,4.492 4.093,12.331c2.639,7.839 5.318,15.509 8.036,23.011l0.067,0c3.594,-9.815 6.626,-18.418 9.097,-25.808c2.47,-7.389 3.751,-11.264 3.841,-11.623l5.02,1.718Z" style="fill-rule:nonzero;"/><path d="M270.589,91.29c0,5.57 -0.011,10.107 -0.034,13.611c-0.022,3.504 -0.034,5.39 -0.034,5.66c-0.224,0.022 -1.269,0.107 -3.133,0.253c-1.864,0.146 -4.267,0.219 -7.21,0.219c-1.842,0 -3.695,-0.169 -5.559,-0.506c-1.864,-0.337 -3.47,-0.82 -4.818,-1.448c-1.797,-0.831 -3.251,-1.966 -4.363,-3.403c-1.112,-1.438 -1.668,-3.167 -1.668,-5.189c0,-2.134 0.657,-3.981 1.971,-5.542c1.314,-1.561 3.139,-2.824 5.475,-3.79c1.46,-0.607 3.409,-1.151 5.846,-1.634c2.437,-0.483 5.216,-0.848 8.338,-1.095c-0.134,-1.752 -0.572,-3.19 -1.314,-4.313c-0.741,-1.123 -1.83,-1.976 -3.268,-2.56c-0.988,-0.405 -2.089,-0.691 -3.301,-0.859c-1.213,-0.169 -2.628,-0.253 -4.246,-0.253c-1.01,0 -1.869,0.022 -2.577,0.067c-0.707,0.045 -1.668,0.101 -2.881,0.169l0.539,-4.481c0.337,-0.023 1.006,-0.062 2.005,-0.118c1,-0.056 2.364,-0.084 4.094,-0.084c2.65,0 5.014,0.275 7.092,0.825c2.077,0.55 3.801,1.443 5.171,2.679c1.281,1.167 2.246,2.611 2.898,4.329c0.651,1.718 0.977,4.206 0.977,7.463Zm-5.155,8.119l0,-2.897c0,-1.168 -0.011,-2.516 -0.034,-4.043c-0.988,0.045 -2.717,0.241 -5.188,0.589c-2.471,0.348 -4.548,0.848 -6.233,1.5c-1.258,0.471 -2.375,1.179 -3.352,2.122c-0.977,0.943 -1.466,2.111 -1.466,3.504c0,1.527 0.416,2.757 1.247,3.689c0.831,0.932 1.965,1.646 3.402,2.14c1.101,0.381 2.32,0.657 3.656,0.825c1.336,0.169 2.746,0.253 4.228,0.253c0.449,0 1,-0.011 1.651,-0.034c0.652,-0.022 1.337,-0.045 2.055,-0.067c0,-0.158 0.006,-0.899 0.017,-2.224c0.011,-1.325 0.017,-3.111 0.017,-5.357Z" style="fill-rule:nonzero;"/><path d="M306.963,77.984c-4.645,10.243 -17.076,39.4 -17.076,39.4c0,0 -3.032,5.798 -6.036,7.766c-3.319,2.175 -17.588,1.544 -17.588,1.544l0.097,-4.768c0,0 12.169,0.549 15.735,-1.471c3.104,-1.758 5.631,-10.532 5.631,-10.532c-4.289,-10.721 -9.168,-21.196 -13.881,-31.737l5.053,-2.19c2.473,6.248 8.299,20.452 11.59,28.132l0.068,0c1.672,-2.787 2.579,-5.967 3.84,-8.962c2.67,-6.337 5.32,-12.682 7.952,-19.035l4.615,1.853" style="fill-rule:nonzero;"/></g><g><path d="M12.91,122.263l0,2.628c-1.283,-1.073 -2.609,-1.61 -3.98,-1.61c-1.511,0 -2.784,0.543 -3.818,1.629c-1.041,1.079 -1.562,2.399 -1.562,3.961c0,1.542 0.521,2.843 1.562,3.903c1.041,1.06 2.316,1.591 3.827,1.591c0.781,0 1.444,-0.127 1.99,-0.381c0.305,-0.127 0.621,-0.299 0.948,-0.515c0.326,-0.215 0.671,-0.476 1.033,-0.78l0,2.675c-1.27,0.718 -2.603,1.076 -3.999,1.076c-2.101,0 -3.895,-0.733 -5.38,-2.199c-1.479,-1.479 -2.219,-3.263 -2.219,-5.351c0,-1.873 0.619,-3.542 1.857,-5.009c1.524,-1.796 3.495,-2.694 5.913,-2.694c1.32,0 2.596,0.358 3.828,1.076Z" style="fill-rule:nonzero;"/><path d="M22.814,127.223l6.095,0l0,-5.751l2.132,0l0,14.702l-2.132,0l0,-6.865l-6.095,0l0,6.865l-2.133,0l0,-14.702l2.133,0l0,5.751Z" style="fill-rule:nonzero;"/><path d="M44.935,129.908l4.551,6.266l-2.713,0l-4.199,-6.018l-0.4,0l0,6.018l-2.219,0l0,-14.702l2.6,0c1.942,0 3.345,0.365 4.208,1.095c0.952,0.813 1.428,1.886 1.428,3.219c0,1.041 -0.298,1.936 -0.895,2.685c-0.596,0.749 -1.383,1.228 -2.361,1.437Zm-2.761,-1.685l0.704,0c2.101,0 3.152,-0.803 3.152,-2.409c0,-1.504 -1.022,-2.256 -3.066,-2.256l-0.79,0l0,4.665Z" style="fill-rule:nonzero;"/><rect x="56.462" y="121.472" width="2.219" height="14.701" style="fill-rule:nonzero;"/><path d="M75.703,123.662l-1.799,1.067c-0.337,-0.584 -0.657,-0.965 -0.962,-1.143c-0.317,-0.203 -0.727,-0.305 -1.228,-0.305c-0.616,0 -1.127,0.175 -1.533,0.524c-0.406,0.343 -0.609,0.775 -0.609,1.295c0,0.717 0.533,1.295 1.599,1.733l1.467,0.6c1.193,0.482 2.066,1.071 2.618,1.766c0.552,0.695 0.828,1.547 0.828,2.557c0,1.352 -0.45,2.469 -1.352,3.351c-0.907,0.889 -2.034,1.333 -3.38,1.333c-1.276,0 -2.329,-0.377 -3.161,-1.133c-0.819,-0.755 -1.33,-1.818 -1.533,-3.19l2.247,-0.495c0.102,0.864 0.279,1.46 0.533,1.79c0.457,0.635 1.124,0.953 2,0.953c0.692,0 1.266,-0.232 1.723,-0.696c0.457,-0.463 0.686,-1.05 0.686,-1.761c0,-0.286 -0.04,-0.548 -0.119,-0.786c-0.08,-0.238 -0.203,-0.457 -0.372,-0.657c-0.168,-0.199 -0.385,-0.387 -0.652,-0.561c-0.266,-0.175 -0.584,-0.341 -0.952,-0.5l-1.419,-0.591c-2.012,-0.85 -3.018,-2.094 -3.018,-3.732c0,-1.104 0.422,-2.028 1.266,-2.771c0.845,-0.749 1.895,-1.123 3.152,-1.123c1.695,0 3.018,0.825 3.97,2.475Z" style="fill-rule:nonzero;"/><path d="M88.213,123.558l0,12.616l-2.219,0l0,-12.616l-3.38,0l0,-2.086l8.969,0l0,2.086l-3.37,0Z" style="fill-rule:nonzero;"/><rect x="99.006" y="121.472" width="2.219" height="14.701" style="fill-rule:nonzero;"/><path d="M117.982,132.603l-6.294,0l-1.637,3.571l-2.39,0l7.274,-15.625l7.017,15.625l-2.428,0l-1.542,-3.571Zm-0.905,-2.085l-2.18,-4.999l-2.285,4.999l4.465,0Z" style="fill-rule:nonzero;"/><path d="M128.045,136.174l0,-15.701l10.3,11.216l0,-10.217l2.131,0l0,15.597l-10.299,-11.188l0,10.293l-2.132,0Z" style="fill-rule:nonzero;"/><path d="M165.895,122.364l0,2.628c-1.282,-1.073 -2.609,-1.609 -3.98,-1.609c-1.511,0 -2.783,0.543 -3.818,1.628c-1.041,1.079 -1.561,2.4 -1.561,3.961c0,1.543 0.52,2.844 1.561,3.904c1.041,1.06 2.317,1.59 3.828,1.59c0.78,0 1.444,-0.127 1.99,-0.381c0.304,-0.127 0.62,-0.298 0.947,-0.514c0.327,-0.216 0.671,-0.476 1.033,-0.781l0,2.676c-1.269,0.717 -2.602,1.076 -3.999,1.076c-2.101,0 -3.894,-0.733 -5.379,-2.2c-1.479,-1.479 -2.219,-3.262 -2.219,-5.351c0,-1.872 0.619,-3.542 1.857,-5.008c1.523,-1.797 3.494,-2.695 5.913,-2.695c1.32,0 2.596,0.359 3.827,1.076Z" style="fill-rule:nonzero;"/><path d="M176.12,127.236l6.037,0l0,-5.809l2.112,0l0,14.848l-2.112,0l0,-6.933l-6.037,0l0,6.933l-2.112,0l0,-14.848l2.112,0l0,5.809Z" style="fill-rule:nonzero;"/><path d="M195.159,121.6l0,8.855c0,1.263 0.207,2.187 0.619,2.771c0.616,0.844 1.482,1.266 2.6,1.266c1.123,0 1.993,-0.422 2.608,-1.266c0.413,-0.565 0.619,-1.489 0.619,-2.771l0,-8.855l2.219,0l0,9.464c0,1.549 -0.483,2.825 -1.447,3.828c-1.086,1.117 -2.419,1.676 -3.999,1.676c-1.581,0 -2.911,-0.559 -3.99,-1.676c-0.965,-1.003 -1.447,-2.279 -1.447,-3.828l0,-9.464l2.218,0Z" style="fill-rule:nonzero;"/><path d="M216.965,129.983l4.551,6.265l-2.714,0l-4.199,-6.018l-0.399,0l0,6.018l-2.219,0l0,-14.701l2.599,0c1.943,0 3.346,0.365 4.209,1.094c0.952,0.813 1.428,1.886 1.428,3.219c0,1.041 -0.298,1.936 -0.895,2.685c-0.597,0.749 -1.384,1.228 -2.361,1.438Zm-2.761,-1.686l0.704,0c2.101,0 3.152,-0.803 3.152,-2.409c0,-1.504 -1.022,-2.256 -3.066,-2.256l-0.79,0l0,4.665Z" style="fill-rule:nonzero;"/><path d="M239.896,122.364l0,2.628c-1.282,-1.073 -2.609,-1.609 -3.98,-1.609c-1.511,0 -2.784,0.543 -3.818,1.628c-1.041,1.079 -1.562,2.4 -1.562,3.961c0,1.543 0.521,2.844 1.562,3.904c1.041,1.06 2.317,1.59 3.827,1.59c0.781,0 1.444,-0.127 1.99,-0.381c0.305,-0.127 0.621,-0.298 0.948,-0.514c0.327,-0.216 0.671,-0.476 1.033,-0.781l0,2.676c-1.27,0.717 -2.603,1.076 -3.999,1.076c-2.101,0 -3.895,-0.733 -5.38,-2.2c-1.479,-1.479 -2.218,-3.262 -2.218,-5.351c0,-1.872 0.619,-3.542 1.856,-5.008c1.524,-1.797 3.495,-2.695 5.913,-2.695c1.32,0 2.596,0.359 3.828,1.076Z" style="fill-rule:nonzero;"/><path d="M249.784,127.264l6.048,0l0,-5.79l2.116,0l0,14.801l-2.116,0l0,-6.911l-6.048,0l0,6.911l-2.116,0l0,-14.801l2.116,0l0,5.79Z" style="fill-rule:nonzero;"/></g><g><g><path d="M315.134,2.343c2.689,13.613 4.337,24.301 4.754,33.744c3.098,-1.58 6.761,-2.753 11.312,-3.285c-4.964,-10.019 -10.234,-19.309 -16.066,-30.459Z"/><path d="M319.929,44.947c3.729,48.253 -8.815,91.653 -48.352,126.866c59.738,-35.648 82.403,-80.366 62.307,-133.659c-5.252,1.421 -9.648,4.193 -13.955,6.793Z"/></g><g><path d="M337.266,32.418l-16.61,-23.824l26.153,26.215l-9.543,-2.391Z"/><path d="M339.895,37.085c24.66,43.071 19.563,82.252 -19.244,117.025c54.17,-30.097 66.527,-67.971 29.267,-115.072l-10.023,-1.953Z"/></g></g></svg>