<?xml version="1.0" encoding="UTF-8" standalone="no"?>
<!DOCTYPE svg PUBLIC "-//W3C//DTD SVG 1.1//EN" "http://www.w3.org/Graphics/SVG/1.1/DTD/svg11.dtd">
<svg width="100%" height="100%" viewBox="0 0 200 50" version="1.1" xmlns="http://www.w3.org/2000/svg" xmlns:xlink="http://www.w3.org/1999/xlink" xml:space="preserve" xmlns:serif="http://www.serif.com/" style="fill-rule:evenodd;clip-rule:evenodd;stroke-linecap:round;stroke-linejoin:round;stroke-miterlimit:1.5;">
    <g transform="matrix(0.9,0,0,0.9,2.5,2.5)">
        <circle cx="25" cy="25" r="25" style="fill:none;stroke:black;stroke-width:2.22px;"/>
    </g>
    <g transform="matrix(0.9,0,0,0.9,52.5,2.5)">
        <circle cx="25" cy="25" r="25" style="fill:none;stroke:black;stroke-width:2.22px;"/>
    </g>
    <g transform="matrix(0.9,0,0,0.9,102.5,2.5)">
        <circle cx="25" cy="25" r="25" style="fill:none;stroke:black;stroke-width:2.22px;"/>
    </g>
    <g transform="matrix(0.9,0,0,0.9,152.5,2.5)">
        <circle cx="25" cy="25" r="25" style="fill:none;stroke:black;stroke-width:2.22px;"/>
    </g>
    <g transform="matrix(0.286406,-0.165357,0.5,0.866025,-1.08048,11.1961)">
        <path d="M47.453,25L2.319,25" style="fill:none;stroke:black;stroke-width:4.03px;"/>
    </g>
    <g transform="matrix(1,0,0,0.797981,0.108219,5.05047)">
        <path d="M24.892,25L24.983,2.443" style="fill:none;stroke:black;stroke-width:3.32px;"/>
    </g>
    <g id="Phone_font_awesome" transform="matrix(0.0195312,0,0,0.0195313,76,26.0361)">
        <g transform="matrix(1,0,0,1,-896,-896)">
            <g id="path3017" transform="matrix(1,0,0,-1,159.458,1549.02)">
                <path d="M1408,296C1408,278 1404.67,254.5 1398,225.5C1391.33,196.5 1384.33,173.667 1377,157C1363,123.667 1322.33,88.333 1255,51C1192.33,17 1130.33,0 1069,0C1051,0 1033.5,1.167 1016.5,3.5C999.5,5.833 980.333,10 959,16C937.667,22 921.833,26.833 911.5,30.5C901.167,34.167 882.667,41 856,51C829.333,61 813,67 807,69C741.667,92.333 683.333,120 632,152C546.667,204.667 458.5,276.5 367.5,367.5C276.5,458.5 204.667,546.667 152,632C120,683.333 92.333,741.667 69,807C67,813 61,829.333 51,856C41,882.667 34.167,901.167 30.5,911.5C26.833,921.833 22,937.667 16,959C10,980.333 5.833,999.5 3.5,1016.5C1.167,1033.5 0,1051 0,1069C0,1130.33 17,1192.33 51,1255C88.333,1322.33 123.667,1363 157,1377C173.667,1384.33 196.5,1391.33 225.5,1398C254.5,1404.67 278,1408 296,1408C305.333,1408 312.333,1407 317,1405C329,1401 346.667,1375.67 370,1329C377.333,1316.33 387.333,1298.33 400,1275C412.667,1251.67 424.333,1230.5 435,1211.5C445.667,1192.5 456,1174.67 466,1158C468,1155.33 473.833,1147 483.5,1133C493.167,1119 500.333,1107.17 505,1097.5C509.667,1087.83 512,1078.33 512,1069C512,1055.67 502.5,1039 483.5,1019C464.5,999 443.833,980.667 421.5,964C399.167,947.333 378.5,929.667 359.5,911C340.5,892.333 331,877 331,865C331,859 332.667,851.5 336,842.5C339.333,833.5 342.167,826.667 344.5,822C346.833,817.333 351.5,809.333 358.5,798C365.5,786.667 369.333,780.333 370,779C420.667,687.667 478.667,609.333 544,544C609.333,478.667 687.667,420.667 779,370C780.333,369.333 786.667,365.5 798,358.5C809.333,351.5 817.333,346.833 822,344.5C826.667,342.167 833.5,339.333 842.5,336C851.5,332.667 859,331 865,331C877,331 892.333,340.5 911,359.5C929.667,378.5 947.333,399.167 964,421.5C980.667,443.833 999,464.5 1019,483.5C1039,502.5 1055.67,512 1069,512C1078.33,512 1087.83,509.667 1097.5,505C1107.17,500.333 1119,493.167 1133,483.5C1147,473.833 1155.33,468 1158,466C1174.67,456 1192.5,445.667 1211.5,435C1230.5,424.333 1251.67,412.667 1275,400C1298.33,387.333 1316.33,377.333 1329,370C1375.67,346.667 1401,329 1405,317C1407,312.333 1408,305.333 1408,296Z" style="fill-rule:nonzero;"/>
            </g>
        </g>
    </g>
    <g transform="matrix(1,0,0,1,-1.00655,-0.786029)">
        <text x="109.348px" y="37.263px" style="font-family:'AppleSDGothicNeo-Bold', 'Apple SD Gothic Neo';font-weight:700;font-size:36px;">@</text>
    </g>
    <path d="M174.995,41.043L167.495,21.043C163.644,6.136 185.386,5.149 182.495,21.043L174.995,41.043ZM175,12.949C177.484,12.949 179.5,14.965 179.5,17.449C179.5,19.932 177.484,21.949 175,21.949C172.516,21.949 170.5,19.932 170.5,17.449C170.5,14.965 172.516,12.949 175,12.949Z" style="stroke:black;stroke-width:2px;"/>
</svg>
